<svg xmlns="http://www.w3.org/2000/svg" viewBox="0 0 960 540" width="960" height="540" role="img" aria-labelledby="lpMockTitle lpMockDesc">
  <title id="lpMockTitle">AP SafeCache  admin UI concept</title>
  <desc id="lpMockDesc">Simplified wireframe of a CS-Cart admin panel with tabs and rule list.</desc>
  <defs>
    <linearGradient id="bg" x1="0%" y1="0%" x2="100%" y2="100%">
      <stop offset="0%" stop-color="#f4f4f6"/>
      <stop offset="100%" stop-color="#e8e8ec"/>
    </linearGradient>
    <filter id="shadow" x="-4%" y="-4%" width="108%" height="112%">
      <feDropShadow dx="0" dy="12" stdDeviation="16" flood-opacity="0.12"/>
    </filter>
  </defs>
  <rect width="960" height="540" fill="url(#bg)"/>
  <g filter="url(#shadow)">
    <rect x="48" y="36" width="864" height="468" rx="10" fill="#fafafa" stroke="#d8d8de" stroke-width="1"/>
  </g>
  <rect x="48" y="36" width="200" height="468" rx="10" fill="#2d2d33" opacity="0.04"/>
  <rect x="72" y="72" width="152" height="10" rx="2" fill="#2d2d33" opacity="0.12"/>
  <rect x="72" y="98" width="120" height="8" rx="2" fill="#2d2d33" opacity="0.2"/>
  <rect x="72" y="118" width="140" height="8" rx="2" fill="#2d2d33" opacity="0.1"/>
  <rect x="72" y="160" width="100" height="8" rx="2" fill="#5bc0de" opacity="0.5"/>
  <rect x="72" y="182" width="130" height="7" rx="2" fill="#2d2d33" opacity="0.14"/>
  <rect x="72" y="204" width="125" height="7" rx="2" fill="#2d2d33" opacity="0.14"/>
  <rect x="268" y="56" width="620" height="44" rx="6" fill="#fff" stroke="#e4e4ea"/>
  <rect x="284" y="72" width="72" height="12" rx="2" fill="#2d2d33" opacity="0.55"/>
  <rect x="372" y="74" width="56" height="8" rx="2" fill="#2d2d33" opacity="0.2"/>
  <rect x="444" y="74" width="48" height="8" rx="2" fill="#2d2d33" opacity="0.2"/>
  <rect x="508" y="74" width="52" height="8" rx="2" fill="#2d2d33" opacity="0.35"/>
  <rect x="576" y="74" width="40" height="8" rx="2" fill="#2d2d33" opacity="0.2"/>
  <rect x="268" y="116" width="620" height="372" rx="8" fill="#fff" stroke="#e4e4ea"/>
  <rect x="292" y="144" width="180" height="14" rx="3" fill="#2d2d33" opacity="0.75"/>
  <rect x="292" y="172" width="420" height="9" rx="2" fill="#2d2d33" opacity="0.22"/>
  <rect x="292" y="190" width="380" height="9" rx="2" fill="#2d2d33" opacity="0.16"/>
  <rect x="292" y="228" width="572" height="1" fill="#e4e4ea"/>
  <rect x="292" y="248" width="120" height="28" rx="4" fill="#f3f3f5" stroke="#d8d8de"/>
  <rect x="428" y="248" width="120" height="28" rx="4" fill="#ffe500" opacity="0.35" stroke="#c9b400"/>
  <rect x="564" y="248" width="120" height="28" rx="4" fill="#f3f3f5" stroke="#d8d8de"/>
  <rect x="292" y="296" width="560" height="36" rx="4" fill="#fafafa" stroke="#e4e4ea"/>
  <rect x="308" y="308" width="200" height="10" rx="2" fill="#2d2d33" opacity="0.35"/>
  <rect x="720" y="308" width="100" height="10" rx="2" fill="#2d2d33" opacity="0.15"/>
  <rect x="292" y="344" width="560" height="36" rx="4" fill="#fafafa" stroke="#e4e4ea"/>
  <rect x="308" y="356" width="240" height="10" rx="2" fill="#2d2d33" opacity="0.35"/>
  <rect x="720" y="356" width="100" height="10" rx="2" fill="#2d2d33" opacity="0.15"/>
  <rect x="292" y="392" width="560" height="36" rx="4" fill="#fafafa" stroke="#e4e4ea"/>
  <rect x="308" y="404" width="180" height="10" rx="2" fill="#2d2d33" opacity="0.35"/>
  <rect x="720" y="404" width="100" height="10" rx="2" fill="#2d2d33" opacity="0.15"/>
  <path d="M 780 420 Q 820 380 860 340" stroke="#2d2d33" stroke-width="2" fill="none" opacity="0.35" stroke-linecap="round"/>
  <polygon points="858,332 868,342 852,346" fill="#2d2d33" opacity="0.4"/>
</svg>
